HIERARCHY
ROOT pelvis
{
  OFFSET 0 100 0
  CHANNELS 6 Xposition Yposition Zposition Zrotation Xrotation Yrotation
  JOINT pelvis_right_femur
  {
    OFFSET -10.78128 -3.44521 -0.5502486
    CHANNELS 3 Zrotation Xrotation Yrotation
    JOINT right_femur_tibia
    {
      OFFSET -0.8047443 -44.0398 -0.1307829
      CHANNELS 3 Zrotation Xrotation Yrotation
      JOINT right_tibia_foot
      {
        OFFSET 3.006224 -47.83518 -5
        CHANNELS 3 Zrotation Xrotation Yrotation
        End Site
        {
          OFFSET 0 -5 15
        }
      }
    }
  }
  JOINT pelvis_left_femur
  {
    OFFSET 10.78128 -3.44521 -0.5502486
    CHANNELS 3 Zrotation Xrotation Yrotation
    JOINT left_femur_tibia
    {
      OFFSET 0.8047443 -44.0398 -0.1307829
      CHANNELS 3 Zrotation Xrotation Yrotation
      JOINT left_tibia_foot
      {
        OFFSET -4.370144 -48.10324 -4.275266
        CHANNELS 3 Zrotation Xrotation Yrotation
        End Site
        {
          OFFSET 0 -5 15
        }
      }
    }
  }
  JOINT pelvis_spine1
  {
    OFFSET 0 6.468898 -3.129235
    CHANNELS 3 Zrotation Xrotation Yrotation
    JOINT spine1
    {
      OFFSET 0 23.15396 4.99043
      CHANNELS 3 Zrotation Xrotation Yrotation
      JOINT spine2
      {
        OFFSET 0 20.79997 -5.064912
        CHANNELS 3 Zrotation Xrotation Yrotation
        JOINT neck
        {
          OFFSET 0 14.38658 9.616178
          CHANNELS 3 Zrotation Xrotation Yrotation
          End Site
          {
            OFFSET 0 20 0
          }
        }
      }
      JOINT right_manubrium
      {
        OFFSET -5.722621 16.35077 3.967754
        CHANNELS 3 Zrotation Xrotation Yrotation
        JOINT right_clavicle
        {
          OFFSET -13.16364 1.694482 -4.693211
          CHANNELS 3 Zrotation Xrotation Yrotation
          JOINT right_humerus
          {
            OFFSET -28.5034 -0.3100689 -2.792744
            CHANNELS 3 Zrotation Xrotation Yrotation
            JOINT right_radius
            {
              OFFSET -25.15693 0.02248979 -1.271978
              CHANNELS 3 Zrotation Xrotation Yrotation
              End Site
              {
                OFFSET -15 0 0
              }
            }
          }
        }
      }
      JOINT left_manubrium
      {
        OFFSET 5.722621 16.35077 3.967754
        CHANNELS 3 Zrotation Xrotation Yrotation
        JOINT left_clavicle
        {
          OFFSET 13.16364 1.694482 -4.693211
          CHANNELS 3 Zrotation Xrotation Yrotation
          JOINT left_humerus
          {
            OFFSET 29.39168 -1.063119 -2.237045
            CHANNELS 3 Zrotation Xrotation Yrotation
            JOINT left_radius
            {
              OFFSET 24.59957 -0.9528479 0.9047498
              CHANNELS 3 Zrotation Xrotation Yrotation
              End Site
              {
                OFFSET 15 -0 -0
              }
            }
          }
        }
      }
    }
  }
}
MOTION
Frames: 13
Frame Time: 0.0416666666667
1526.329 99.67129 2631.085 7.173062 -4.399492 53.59892 4.240229 11.38463 5.798257 -0 14.7979 -0 0.2228862 -13.31629 -4.241985 0.8248476 -20.65443 -3.122641 -0 36.14373 -0 -7.183785 -7.25344 20.12261 -0.5865529 1.697158 7.828183 -0.3604202 10.4699 -3.413159 2.362152 22.48669 4.635287 1.828428 -16.61802 6.701408 0.9004888 -20.57239 11.51122 82.6506 22.11079 -8.22091 -0 0 21.0305 -23.07584 10.76652 12.42949 4.471943 -16.84679 -3.180138 -92.32049 23.20996 21.53096 0 0 -12.90029 -1.449194 5.282558 15.32945
1531.731 98.78849 2634.298 5.909161 -3.732905 52.88088 3.746488 14.59312 5.03299 -0 15.7297 -0 0.2556004 -14.42347 -3.116291 1.455265 -24.11456 -2.483868 -0 26.96975 -0 -6.783543 -7.49315 19.76159 -0.7485599 1.379819 8.15111 -0.45892 9.741632 -3.277964 2.003986 22.23983 4.810722 1.846813 -17.39537 6.487717 0.3735852 -21.65431 11.21551 81.52655 22.57394 -6.303731 -0 0 23.23587 -23.51851 9.678869 13.33248 4.289057 -16.03913 -2.850744 -93.53404 23.89403 24.39633 0 0 -11.61807 -2.218475 4.720758 16.81927
1537.558 97.94892 2637.583 5.006171 -2.783307 52.34242 2.594255 16.85731 4.474376 -0 18.48612 -0 0.6381948 -13.36058 -2.12325 0.991843 -25.64801 -2.843957 -0 22.01009 -0 -6.123431 -7.586054 19.32923 -1.34448 0.71871 8.492118 -0.61832 9.309642 -3.217904 1.761219 21.98531 5.271331 2.296058 -17.80651 6.411977 0.8853824 -21.81118 11.07028 80.13701 24.50027 -5.158585 -0 0 23.96017 -24.75012 9.991248 14.28261 4.114312 -15.60207 -2.65771 -93.99882 23.94924 26.02271 0 0 -10.48885 -2.477961 4.931957 17.39834
1543.787 97.40791 2640.946 4.776903 -1.961766 52.06737 1.190246 17.80174 4.632968 -0 23.84256 -0 1.455077 -10.04136 -1.806233 -0.2701814 -25.2201 -3.731447 -0 20.79329 -0 -5.299512 -7.774319 18.93971 -2.125491 -0.1156835 8.839777 -0.8278805 9.460138 -3.270134 1.712841 21.61463 5.665161 2.670474 -18.12176 6.535369 1.64436 -21.66225 11.11326 79.61981 26.07655 -5.202839 -0 0 23.82805 -26.2096 11.04468 15.05137 3.840627 -15.50174 -2.637961 -93.79125 23.63419 26.82633 0 0 -10.13925 -2.546372 5.088611 17.66978
1550.275 97.34434 2644.349 5.08434 -1.505755 52.14595 0.003796756 17.25497 5.16105 -0 31.52737 -0 2.394661 -5.675441 -2.277105 -1.84863 -23.06695 -4.768975 -0 21.36446 -0 -4.474784 -8.266439 18.57138 -2.837767 -0.8297978 8.958006 -1.018716 9.957128 -3.440855 1.775324 21.26954 5.860962 2.740773 -18.45332 6.794294 2.242315 -21.44138 11.22857 80.19143 26.75947 -6.172275 -0 0 23.17996 -27.22288 12.1257 15.49315 3.46321 -15.53893 -2.737489 -93.18212 23.4088 27.04645 0 0 -10.39314 -2.61113 5.003684 17.97853
1556.801 97.82755 2647.704 5.667509 -1.443526 52.62748 -0.6871506 15.05482 5.554464 -0 40.29591 -0 3.144901 -1.5532 -3.316756 -3.349711 -19.49831 -5.738796 -0 22.21737 -0 -3.783964 -9.089837 18.21224 -3.341846 -1.193307 8.65606 -1.127903 10.48855 -3.740545 1.819055 21.10626 5.947683 2.593948 -18.68038 7.082937 2.703731 -21.06645 11.30979 81.42083 26.90511 -7.615221 -0 0 22.06313 -27.50672 12.88985 15.54889 3.088964 -15.66204 -2.938621 -92.28702 23.44665 26.5215 0 0 -10.9372 -2.617742 4.831942 18.21723
1563.136 98.783 2650.907 6.305124 -1.701051 53.48645 -0.8272617 11.17506 5.559604 -0 48.42005 -0 3.517364 1.404882 -4.623465 -4.512177 -14.90447 -6.508407 -0 22.51807 -0 -3.317562 -10.18683 17.82348 -3.574822 -1.121315 7.899278 -1.110531 10.85997 -4.187123 1.774214 21.1839 6.029852 2.369587 -18.65307 7.330818 3.095872 -20.44961 11.30042 82.87255 26.89001 -9.239282 -0 0 20.55449 -27.10474 13.26268 15.24172 2.841765 -15.92642 -3.248766 -91.13587 23.70816 25.06295 0 0 -11.63886 -2.480379 4.737471 18.21244
1569.109 99.99959 2653.88 6.827183 -2.133386 54.62101 -0.56738 5.852111 5.190464 -0 54.08617 -0 3.470949 2.747546 -5.933649 -5.227019 -9.757446 -7.041364 -0 21.90924 -0 -3.089832 -11.48456 17.34319 -3.547505 -0.6935062 6.802037 -0.947188 11.00443 -4.785456 1.651332 21.45064 6.157853 2.150463 -18.32979 7.537863 3.412952 -19.59641 11.19355 84.28386 26.92847 -10.92751 -0 0 18.82002 -26.3055 13.40354 14.70811 2.814527 -16.40814 -3.647748 -89.72136 24.02435 22.63491 0 0 -12.57589 -2.141091 4.849964 17.83725
1574.652 101.1789 2656.612 7.118904 -2.557391 55.88518 -0.1623253 -0.4117954 4.592092 -0 55.86335 -0 3.099641 2.497482 -7.081617 -5.52481 -4.529607 -7.380371 -0 20.39229 -0 -3.049339 -12.92866 16.72467 -3.346685 -0.09922091 5.569397 -0.6489891 10.9396 -5.504984 1.516147 21.78683 6.323987 1.958529 -17.79684 7.749007 3.592681 -18.58518 11.01465 85.55675 27.08387 -12.66403 -0 0 17.04434 -25.4704 13.57921 14.12942 3.05497 -17.14687 -4.072403 -88.05262 24.19577 19.38117 0 0 -13.94034 -1.579813 5.232914 17.035
1579.814 102.017 2659.166 7.126892 -2.798836 57.13655 0.1525172 -6.948393 3.899865 -0 53.16984 -0 2.574584 1.073022 -7.996641 -5.531475 0.4030534 -7.596745 -0 18.23889 -0 -3.122172 -14.48006 15.96552 -3.109398 0.4529032 4.420683 -0.2547661 10.71832 -6.276275 1.442229 22.06635 6.486447 1.793055 -17.21372 7.998321 3.576596 -17.5161 10.79974 86.69122 27.3229 -14.46132 -0 0 15.35518 -24.84676 13.98119 13.63222 3.561255 -18.11862 -4.438908 -86.20422 24.09627 15.59702 0 0 -15.89818 -0.8252535 5.840943 15.84361
1584.729 102.29 2661.657 6.86455 -2.74805 58.27577 0.2441794 -13.08624 3.184882 -0 46.52181 -0 2.060682 -0.881661 -8.666841 -5.407818 4.826931 -7.745769 -0 15.90137 -0 -3.262481 -16.08328 15.11275 -2.963042 0.8135989 3.516973 0.1799162 10.39409 -7.009203 1.468959 22.20792 6.600435 1.664293 -16.7339 8.270071 3.359658 -16.47206 10.57618 87.7187 27.56753 -16.3144 -0 0 13.79173 -24.467 14.59958 13.2312 4.28081 -19.23536 -4.680107 -84.32068 23.73806 11.66636 0 0 -18.46863 0.03720401 6.52007 14.40949
1589.574 101.9114 2664.213 6.406809 -2.402827 59.26121 0.1168241 -18.30758 2.486632 -0 37.40646 -0 1.65266 -2.71506 -9.113569 -5.28666 8.696516 -7.851813 -0 13.92147 -0 -3.482908 -17.62848 14.24544 -2.962093 0.9279729 2.916518 0.5976235 10.00855 -7.621593 1.5876 22.19829 6.639403 1.598233 -16.44375 8.503807 3.000737 -15.50295 10.35358 88.6621 27.73131 -18.18194 -0 0 12.32402 -24.17269 15.23651 12.83444 5.114933 -20.36689 -4.772375 -82.57272 23.26335 7.977444 0 0 -21.47027 0.8781777 7.07653 12.96245
1594.52 100.9468 2666.941 5.86757 -1.876106 60.09808 -0.0922927 -22.32753 1.875728 -0 27.81799 -0 1.353965 -3.958083 -9.386328 -5.225197 12.07294 -7.919838 -0 12.8501 -0 -3.849572 -18.93383 13.44634 -3.061322 0.8253108 2.575406 0.9520622 9.595917 -8.062625 1.758605 22.08384 6.59752 1.616165 -16.34344 8.633178 2.596546 -14.6286 10.12879 89.52369 27.74186 -19.98475 -0 0 10.90544 -23.73306 15.63757 12.3019 5.93333 -21.37373 -4.737852 -81.10723 22.86997 4.851213 0 0 -24.54498 1.564774 7.37889 11.74712
